<svg width="38" height="38" viewBox="0 0 38 38" fill="none" xmlns="http://www.w3.org/2000/svg">
  <path fill-rule="evenodd" clip-rule="evenodd" d="M18.9999 0.594666C8.57897 0.594666 0.128662 9.0431 0.128662 19.4659C0.128662 27.804 5.53585 34.8775 13.034 37.3731C13.9768 37.5481 14.323 36.9637 14.323 36.4653C14.323 36.0153 14.3055 34.5287 14.2974 32.9519C9.04741 34.0934 7.9396 30.7253 7.9396 30.7253C7.08116 28.544 5.84429 27.964 5.84429 27.964C4.13179 26.7928 5.97335 26.8172 5.97335 26.8172C7.86804 26.95 8.86616 28.7619 8.86616 28.7619C10.5493 31.6462 13.2809 30.8125 14.3577 30.3306C14.5271 29.1109 15.0162 28.2781 15.5559 27.8069C11.3643 27.3303 6.95772 25.7119 6.95772 18.4809C6.95772 16.4206 7.69523 14.7372 8.90241 13.4153C8.70616 12.9403 8.06022 11.0209 9.08491 8.42154C9.08491 8.42154 10.6693 7.91435 14.2755 10.3559C15.7812 9.93748 17.3958 9.72717 18.9999 9.71998C20.603 9.72717 22.2187 9.93685 23.7271 10.3553C27.329 7.91373 28.9115 8.42092 28.9115 8.42092C29.9387 11.02 29.2927 12.9397 29.0968 13.4147C30.3068 14.7365 31.039 16.42 31.039 18.4803C31.039 25.7284 26.6243 27.324 22.4221 27.7915C23.0993 28.3772 23.7024 29.5259 23.7024 31.2862C23.7024 33.8112 23.6805 35.8434 23.6805 36.465C23.6805 36.9672 24.0205 37.5556 24.9768 37.3703C32.4705 34.8722 37.8715 27.8009 37.8715 19.4659C37.8712 9.04373 29.4218 0.594666 18.9999 0.594666Z" fill="#29575C"/>
  <path d="M7.27624 27.6893C7.23468 27.7831 7.08718 27.8112 6.95281 27.7471C6.81531 27.6859 6.73874 27.5581 6.78312 27.464C6.82374 27.3671 6.97156 27.3406 7.10812 27.4053C7.24562 27.4668 7.32374 27.5959 7.27593 27.6896L7.27624 27.6893ZM8.04062 28.5421C7.95093 28.6256 7.77499 28.5868 7.65562 28.4546C7.53187 28.3234 7.50874 28.1474 7.60031 28.0628C7.69343 27.9796 7.86406 28.019 7.98781 28.1503C8.11093 28.2834 8.13531 28.4578 8.04093 28.5424L8.04062 28.5421ZM8.78499 29.6287C8.66937 29.7093 8.47999 29.634 8.36312 29.4662C8.24749 29.2981 8.24749 29.0965 8.36624 29.0162C8.48281 28.9356 8.66937 29.0084 8.78812 29.1746C8.90312 29.3449 8.90312 29.5465 8.78499 29.6284V29.6287ZM9.80406 30.679C9.70093 30.7931 9.48031 30.7624 9.31906 30.6071C9.15437 30.4549 9.10843 30.2384 9.21187 30.1246C9.31687 30.0103 9.53843 30.0421 9.70062 30.1965C9.86531 30.3484 9.91499 30.5653 9.80468 30.6787L9.80406 30.679ZM11.2103 31.2887C11.1644 31.4365 10.9525 31.5037 10.7384 31.4406C10.525 31.3759 10.3853 31.2031 10.4291 31.0537C10.4728 30.9046 10.6862 30.8349 10.9016 30.9021C11.115 30.9665 11.2547 31.1384 11.2103 31.2887ZM12.755 31.4015C12.7603 31.5571 12.5791 31.6859 12.355 31.689C12.1291 31.6943 11.9462 31.5681 11.9441 31.4149C11.9441 31.2578 12.1216 31.1306 12.3472 31.1262C12.5712 31.1221 12.7553 31.2471 12.7553 31.4012L12.755 31.4015ZM14.1919 31.1571C14.2187 31.3087 14.0628 31.4646 13.84 31.5062C13.6212 31.5468 13.4181 31.4524 13.39 31.3021C13.3631 31.1465 13.5219 30.9906 13.7406 30.9503C13.9637 30.9118 14.1637 31.0034 14.1919 31.1574V31.1571Z" fill="#29575C"/>
</svg>