<svg width="50" height="19" viewBox="0 0 50 19" fill="none" xmlns="http://www.w3.org/2000/svg">
  <path d="M14.9531 4.34875H22.3181L21.9594 6.46688H17.2025L16.8444 8.67938H21.1325L20.7744 10.8044H16.4862L15.7694 15.14H13.1619L14.9531 4.34875Z" fill="#333333"/>
  <path d="M22.4374 7.04625H25.0137L23.6674 15.1381H21.0912L22.4374 7.04625ZM22.7499 4.86562C22.8562 4.1875 23.5256 3.63812 24.2499 3.63812C24.9743 3.63812 25.4906 4.1875 25.4006 4.86562C25.3106 5.54375 24.6368 6.09812 23.9099 6.09812C23.1831 6.09812 22.6512 5.53937 22.7499 4.86562Z" fill="#333333"/>
  <path d="M26.3506 4.34875H28.9262L28.2575 8.43188H28.3125C28.7337 7.68876 29.5719 6.94125 30.8519 6.94125C32.5431 6.94125 33.8519 8.24251 33.375 11.0975C32.9219 13.8525 31.2362 15.2538 29.445 15.2538C28.2231 15.2538 27.6119 14.5744 27.4225 13.8263H27.3219L27.1112 15.1388H24.5625L26.3506 4.34875ZM28.895 13.25C29.8431 13.25 30.52 12.4019 30.7281 11.0956C30.9362 9.78938 30.5594 8.95626 29.6031 8.95626C28.66 8.95626 27.97 9.77313 27.7594 11.0956C27.5462 12.4038 27.9519 13.25 28.895 13.25Z" fill="#333333"/>
  <path d="M33.6744 11.125C34.09 8.61751 35.9444 6.9425 38.3838 6.9425C40.6807 6.9425 42.0507 8.41188 41.6082 11.0725L41.5075 11.715H36.1188L36.1025 11.81C35.9394 12.8375 36.4238 13.435 37.43 13.435C38.0994 13.435 38.68 13.1506 38.9738 12.6081L41.3232 12.6763C40.7494 14.2675 39.2057 15.2944 37.0732 15.2944C34.5325 15.2906 33.2369 13.7106 33.6744 11.125ZM39.3532 10.2188C39.485 9.39188 38.9894 8.80188 38.1469 8.80188C37.3144 8.80188 36.5769 9.41813 36.3925 10.2188H39.3532Z" fill="#333333"/>
  <path d="M42.8625 7.04625H45.3625L45.1125 8.52125H45.1969C45.6763 7.45187 46.4713 6.9375 47.3563 6.9375C47.5943 6.93912 47.8313 6.96849 48.0625 7.025L47.6832 9.26937C47.4463 9.18 47.0088 9.1325 46.6875 9.1325C45.7763 9.1325 44.9857 9.78062 44.8175 10.7444L44.09 15.1381H41.5144L42.8625 7.04625Z" fill="#333333"/>
  <path d="M13.3606 7.21313H4.95375L4.28125 8.16751L13.205 8.16251L13.3606 7.21313Z" fill="#00ACD7"/>
  <path d="M13.0638 9.19125H2.18443L1.49255 10.1419L12.9082 10.1338L13.0638 9.19125Z" fill="#00ACD7"/>
  <path d="M12.7669 11.1688H8.11877L7.49377 12.1231L12.6113 12.1194L12.7669 11.1688Z" fill="#00ACD7"/>
</svg>