<svg xmlns="http://www.w3.org/2000/svg" width="38" height="38" viewBox="0 0 38 38" fill="none">
  <path fill-rule="evenodd" clip-rule="evenodd" d="M19 0.594727C8.5791 0.594727 0.128784 9.04316 0.128784 19.466C0.128784 27.8041 5.53597 34.8775 13.0341 37.3732C13.9769 37.5482 14.3232 36.9638 14.3232 36.4654C14.3232 36.0154 14.3057 34.5288 14.2975 32.9519C9.04753 34.0935 7.93972 30.7254 7.93972 30.7254C7.08128 28.5441 5.84441 27.9641 5.84441 27.9641C4.13191 26.7929 5.97347 26.8172 5.97347 26.8172C7.86816 26.95 8.86628 28.7619 8.86628 28.7619C10.5494 31.6463 13.281 30.8125 14.3578 30.3307C14.5272 29.111 15.0163 28.2782 15.556 27.8069C11.3644 27.3304 6.95785 25.7119 6.95785 18.481C6.95785 16.4207 7.69535 14.7372 8.90253 13.4154C8.70628 12.9404 8.06035 11.021 9.08503 8.4216C9.08503 8.4216 10.6694 7.91441 14.2757 10.356C15.7813 9.93754 17.396 9.72723 19 9.72004C20.6032 9.72723 22.2188 9.93692 23.7272 10.3554C27.3291 7.91379 28.9116 8.42098 28.9116 8.42098C29.9388 11.02 29.2928 12.9397 29.0969 13.4147C30.3069 14.7366 31.0391 16.42 31.0391 18.4804C31.0391 25.7285 26.6244 27.3241 22.4222 27.7916C23.0994 28.3772 23.7025 29.526 23.7025 31.2863C23.7025 33.8113 23.6807 35.8435 23.6807 36.465C23.6807 36.9672 24.0207 37.5557 24.9769 37.3704C32.4707 34.8722 37.8716 27.801 37.8716 19.466C37.8713 9.04379 29.4219 0.595039 19 0.595039V0.594727Z" fill="#53A8B2"/>
  <path d="M7.2763 27.6894C7.23474 27.7832 7.08724 27.8113 6.95287 27.7473C6.81537 27.686 6.7388 27.5582 6.78318 27.4641C6.8238 27.3673 6.97162 27.3407 7.10818 27.4054C7.24568 27.4669 7.3238 27.596 7.27599 27.6898L7.2763 27.6894ZM8.04068 28.5423C7.95099 28.6257 7.77505 28.5869 7.65568 28.4548C7.53193 28.3235 7.5088 28.1476 7.60037 28.0629C7.69349 27.9798 7.86412 28.0191 7.98787 28.1504C8.11099 28.2835 8.13537 28.4579 8.04099 28.5426L8.04068 28.5423ZM8.78505 29.6288C8.66943 29.7094 8.48005 29.6341 8.36318 29.4663C8.24755 29.2982 8.24755 29.0966 8.3663 29.0163C8.48287 28.9357 8.66943 29.0085 8.78818 29.1748C8.90318 29.3451 8.90318 29.5466 8.78505 29.6285V29.6288ZM9.80412 30.6791C9.70099 30.7932 9.48037 30.7626 9.31912 30.6073C9.15443 30.4551 9.10849 30.2385 9.21193 30.1248C9.31693 30.0104 9.53849 30.0423 9.70068 30.1966C9.86537 30.3485 9.91505 30.5654 9.80474 30.6788L9.80412 30.6791ZM11.2104 31.2888C11.1644 31.4366 10.9526 31.5038 10.7385 31.4407C10.5251 31.376 10.3854 31.2032 10.4291 31.0538C10.4729 30.9048 10.6863 30.8351 10.9016 30.9023C11.1151 30.9666 11.2547 31.1385 11.2104 31.2888ZM12.7551 31.4016C12.7604 31.5573 12.5791 31.686 12.3551 31.6891C12.1291 31.6944 11.9463 31.5682 11.9441 31.4151C11.9441 31.2579 12.1216 31.1307 12.3472 31.1263C12.5713 31.1223 12.7554 31.2473 12.7554 31.4013L12.7551 31.4016ZM14.1919 31.1573C14.2188 31.3088 14.0629 31.4648 13.8401 31.5063C13.6213 31.5469 13.4182 31.4526 13.3901 31.3023C13.3632 31.1466 13.5219 30.9907 13.7407 30.9504C13.9638 30.9119 14.1638 31.0035 14.1919 31.1576V31.1573Z" fill="#53A8B2"/>
</svg>