<svg width="50" height="50" viewBox="0 0 50 50" fill="none" xmlns="http://www.w3.org/2000/svg">
  <path fill-rule="evenodd" clip-rule="evenodd" d="M8.24222 26.8359C8.32035 28.2031 9.68754 27.5781 10.3125 27.1484C10.8985 26.7188 11.0938 27.0703 11.1328 26.25C11.1719 25.7031 11.211 25.1953 11.211 24.6484C10.3125 24.5703 9.33597 24.7656 8.59379 25.3125C8.24222 25.5859 7.50004 26.4844 8.24222 26.8359Z" fill="#F6D2A2"/>
  <path d="M8.98443 27.8125C8.71099 27.8125 8.20318 27.6953 8.12505 26.9141C7.89068 26.7578 7.81255 26.5625 7.81255 26.4453C7.77349 25.9766 8.2813 25.4297 8.55474 25.2344C9.17974 24.7656 10.0001 24.5312 10.8594 24.5312H11.3672V24.6484C11.4063 25.0781 11.3672 25.5078 11.3282 25.8984C11.3282 26.0156 11.3282 26.1328 11.2891 26.25C11.2501 26.8359 11.1329 26.9141 10.8594 27.0312C10.7422 27.0703 10.6251 27.1094 10.4297 27.2656C10.2344 27.3828 9.57037 27.8125 8.98443 27.8125ZM10.8594 24.7656C10.0391 24.7656 9.29693 25 8.71099 25.4297C8.43755 25.625 8.04693 26.0937 8.08599 26.4062C8.08599 26.5234 8.16412 26.6406 8.32037 26.7188L8.39849 26.7578V26.8359C8.43755 27.4609 8.75005 27.5391 8.98443 27.5391C9.37505 27.5391 9.92193 27.2656 10.2735 27.0312C10.5079 26.875 10.6641 26.8359 10.7813 26.7969C10.9766 26.7187 11.0157 26.7187 11.0547 26.25C11.0547 26.1328 11.0547 26.0156 11.0938 25.8984C11.1329 25.5469 11.1329 25.1563 11.1329 24.8047C11.0157 24.7656 10.9376 24.7656 10.8594 24.7656Z" fill="black"/>
  <path fill-rule="evenodd" clip-rule="evenodd" d="M8.24219 26.8359C8.4375 26.7578 8.67187 26.7188 8.78906 26.5234L8.24219 26.8359Z" fill="#C6B198"/>
  <path d="M8.24213 26.9531C8.20307 26.9531 8.12494 26.9141 8.12494 26.875C8.08588 26.7969 8.12494 26.7188 8.20307 26.7188C8.24213 26.7188 8.28119 26.6797 8.28119 26.6797C8.43744 26.6016 8.59369 26.5625 8.67182 26.4453C8.71088 26.4063 8.78901 26.3672 8.86713 26.4063C8.90619 26.4453 8.94526 26.5234 8.90619 26.6016C8.74994 26.7969 8.55463 26.875 8.39838 26.9141L8.32026 26.9531H8.24213Z" fill="black"/>
  <path fill-rule="evenodd" clip-rule="evenodd" d="M11.4453 10.3125C6.1328 8.82814 10.0781 2.07033 14.3359 4.84376L11.4453 10.3125Z" fill="#6AD7E5"/>
  <path d="M11.5235 10.4688L11.4063 10.4297C8.67189 9.64844 8.71095 7.69531 8.78908 7.10938C8.98439 5.625 10.3906 4.0625 12.2656 4.0625C13.0078 4.0625 13.711 4.29688 14.4141 4.76563L14.5313 4.84375L11.5235 10.4688ZM12.2656 4.33594C10.5078 4.33594 9.21877 5.78125 9.02345 7.14844C8.82814 8.55469 9.68752 9.64844 11.3672 10.1562L14.1406 4.88281C13.5547 4.53125 12.9297 4.33594 12.2656 4.33594Z" fill="black"/>
  <path fill-rule="evenodd" clip-rule="evenodd" d="M35 4.33594C39.1797 1.40625 43.0078 8.04688 38.125 9.72657L35 4.33594Z" fill="#6AD7E5"/>
  <path d="M38.0859 9.88281L34.8438 4.29687L34.9609 4.21875C35.7031 3.71094 36.4453 3.4375 37.1875 3.4375C38.9844 3.4375 40.2734 4.92187 40.5469 6.36719C40.6641 6.95312 40.7813 8.94531 38.2031 9.80469L38.0859 9.88281ZM35.1953 4.41406L38.2031 9.60938C39.7266 9.0625 40.5078 7.89062 40.2734 6.48438C40.0391 5.15625 38.8281 3.78906 37.1875 3.78906C36.5234 3.75 35.8594 3.94531 35.1953 4.41406Z" fill="black"/>
  <path fill-rule="evenodd" clip-rule="evenodd" d="M35.9375 43.8672C36.9922 44.5312 38.9453 46.5234 37.3437 47.5C35.8203 48.9062 34.9609 45.9375 33.5938 45.5469C34.1797 44.7656 34.9219 44.0234 35.9375 43.8672Z" fill="#F6D2A2"/>
  <path d="M36.5234 48.0078C35.8984 48.0078 35.3516 47.3828 34.8828 46.7969C34.4531 46.3281 34.0234 45.8203 33.5547 45.6641L33.3594 45.625L33.4766 45.4688C33.9453 44.8047 34.7266 43.9453 35.8984 43.75H35.9375L35.9766 43.7891C36.6406 44.2187 38.0859 45.4297 38.0469 46.5625C38.0469 46.9922 37.8125 47.3438 37.3828 47.6172C37.1094 47.8906 36.8359 48.0078 36.5234 48.0078ZM33.7891 45.4688C34.2578 45.6641 34.6484 46.1719 35.0391 46.6016C35.5078 47.1875 35.9766 47.6953 36.4844 47.6953C36.7188 47.6953 36.9531 47.5781 37.1875 47.3437H37.2266C37.5781 47.1094 37.7734 46.8359 37.7734 46.4844C37.7734 45.5859 36.6406 44.4531 35.8594 43.9453C35.1563 44.1406 34.4531 44.6094 33.7891 45.4688ZM37.3437 47.6172C37.3047 47.6172 37.2656 47.5781 37.2266 47.5391C37.1484 47.3828 37.0703 47.1875 37.0313 47.0313C36.9141 46.7188 36.7969 46.4062 36.5625 46.1719C36.5234 46.1328 36.5234 46.0547 36.5625 45.9766C36.6016 45.9375 36.6797 45.9375 36.7578 45.9766C37.0312 46.25 37.1875 46.6016 37.3047 46.9531L37.5 47.4219C37.5391 47.5 37.5 47.5781 37.4609 47.6172H37.3437Z" fill="black"/>
  <path fill-rule="evenodd" clip-rule="evenodd" d="M16.8749 46.1328C15.6249 46.3281 14.9218 47.4609 13.8671 48.0469C12.8906 48.6328 12.4999 47.8516 12.4218 47.6953C12.2656 47.6172 12.2656 47.7734 12.0312 47.5391C11.1328 46.0938 12.9687 45.0391 13.9453 44.3359C15.3124 44.0234 16.1718 45.1953 16.8749 46.1328Z" fill="#F6D2A2"/>
  <path d="M13.2032 48.3594C12.6954 48.3594 12.4219 47.9297 12.3438 47.7734H12.3047C12.1875 47.7734 12.1094 47.7344 11.9532 47.5781V47.5391C11.0938 46.1719 12.5782 45.1172 13.5547 44.4141L13.9063 44.1797H13.9844C14.1407 44.1406 14.2579 44.1406 14.4141 44.1406C15.586 44.1406 16.3282 45.1562 16.9532 45.9766L17.1485 46.25L16.9141 46.2891C16.1719 46.4062 15.625 46.875 15.0782 47.3437C14.7266 47.6562 14.375 47.9297 13.9844 48.1641C13.6719 48.2813 13.4375 48.3594 13.2032 48.3594ZM12.3438 47.5391C12.3829 47.5391 12.4219 47.5391 12.5 47.5781H12.5391L12.5782 47.6172C12.6563 47.7344 12.8516 48.0859 13.2422 48.0859C13.4375 48.0859 13.6329 48.0078 13.8282 47.8906C14.2188 47.6953 14.5704 47.3828 14.8829 47.1094C15.3907 46.6797 15.9375 46.2109 16.6407 46.0156C16.0547 45.2344 15.3516 44.375 14.375 44.375C14.2579 44.375 14.1407 44.375 14.0235 44.4141L13.711 44.6484C12.6954 45.3516 11.4454 46.25 12.1875 47.4219C12.2266 47.5 12.2657 47.5391 12.3438 47.5391ZM12.4219 47.8125C12.3438 47.8125 12.2657 47.7344 12.3047 47.6562C12.3438 47.2656 12.5391 46.9922 12.7344 46.6797C12.8516 46.5234 12.9297 46.3672 13.0079 46.2109C13.0469 46.1328 13.125 46.1328 13.1641 46.1328C13.2422 46.1719 13.2422 46.25 13.2422 46.2891C13.1641 46.4844 13.0469 46.6406 12.9297 46.7969C12.7344 47.0703 12.5782 47.3047 12.5391 47.6172C12.5391 47.7734 12.5 47.8125 12.4219 47.8125Z" fill="black"/>
  <path fill-rule="evenodd" clip-rule="evenodd" d="M11.6797 8.47657C10.9766 8.12501 10.4688 7.61719 10.8985 6.79688C11.2891 6.05469 12.0313 6.13282 12.7344 6.48438L11.6797 8.47657ZM37.0313 7.77344C37.7344 7.42188 38.2422 6.91407 37.8126 6.09375C37.4219 5.35157 36.6797 5.42969 35.9766 5.78125L37.0313 7.77344Z" fill="black"/>
  <path fill-rule="evenodd" clip-rule="evenodd" d="M41.8359 26.6406C41.7578 28.0078 40.3906 27.3828 39.7656 26.9531C39.1797 26.5234 38.9844 26.875 38.9453 26.0547C38.9062 25.5078 38.8672 25 38.8672 24.4531C39.7656 24.375 40.7422 24.5703 41.4844 25.1172C41.875 25.4297 42.5781 26.2891 41.8359 26.6406Z" fill="#F6D2A2"/>
  <path d="M41.1328 27.6172C40.5468 27.6172 39.8828 27.1875 39.6874 27.0703C39.4921 26.9531 39.3749 26.875 39.2578 26.8359C38.9453 26.7187 38.8671 26.6406 38.8281 26.0547C38.8281 25.9375 38.8281 25.8203 38.789 25.7031C38.7499 25.3125 38.7109 24.8828 38.7499 24.4531V24.3359H39.2578C40.1171 24.3359 40.9374 24.5703 41.5624 25.0391C41.8359 25.2344 42.3437 25.7812 42.3046 26.25C42.3046 26.4062 42.2265 26.6016 41.9921 26.7188C41.914 27.5 41.4062 27.6172 41.1328 27.6172ZM38.9843 24.6094C38.9843 24.9609 38.9843 25.3516 39.0234 25.7031C39.0234 25.8203 39.0234 25.9375 39.0624 26.0547C39.1015 26.5234 39.1406 26.5234 39.3359 26.6016C39.4531 26.6406 39.6093 26.7187 39.8437 26.8359C40.1953 27.0703 40.7421 27.3438 41.1328 27.3438C41.3671 27.3438 41.6796 27.2656 41.7187 26.6406V26.5625L41.7968 26.5234C41.9531 26.4453 42.0312 26.3672 42.0312 26.2109C42.0703 25.8984 41.6796 25.4297 41.4062 25.2344C40.8203 24.8047 40.039 24.5703 39.2578 24.5703C39.1796 24.6094 39.1015 24.6094 38.9843 24.6094Z" fill="black"/>
  <path fill-rule="evenodd" clip-rule="evenodd" d="M41.8359 26.6406C41.6406 26.5625 41.4063 26.5234 41.2891 26.3281L41.8359 26.6406Z" fill="#C6B198"/>
  <path d="M41.836 26.7969H41.7969L41.7188 26.7578C41.5235 26.6797 41.3281 26.6406 41.211 26.4453C41.1719 26.4062 41.1719 26.2891 41.25 26.25C41.2891 26.2109 41.4063 26.2109 41.4453 26.2891C41.5235 26.4062 41.6797 26.4453 41.836 26.5234C41.875 26.5234 41.9141 26.5625 41.9141 26.5625C41.9922 26.6016 42.0313 26.6797 41.9922 26.7187C41.9531 26.7578 41.875 26.7969 41.836 26.7969Z" fill="black"/>
  <path fill-rule="evenodd" clip-rule="evenodd" d="M24.5313 1.5625C29.8438 1.5625 34.8047 2.30469 37.4219 7.42188C39.7657 13.125 38.9063 19.2969 39.2969 25.3516C39.6094 30.5469 40.2735 36.5234 37.8907 41.3281C35.3516 46.3672 29.0235 47.6562 23.8282 47.4609C19.7266 47.3047 14.8047 45.9766 12.461 42.2266C9.76566 37.8516 11.0157 31.3281 11.211 26.4453C11.4453 20.6641 9.64847 14.8438 11.5625 9.21875C13.4766 3.32031 18.7891 1.99219 24.5313 1.5625Z" fill="#6AD7E5"/>
  <path d="M24.7266 47.6172H23.75C22.1484 47.5781 19.7266 47.3047 17.3437 46.3281C15.0391 45.3906 13.3594 44.0625 12.2656 42.3047C10.0781 38.75 10.4687 33.8672 10.8203 29.5313C10.8984 28.4375 10.9766 27.4219 11.0156 26.4453C11.0937 24.4141 10.9375 22.3047 10.7422 20.3125C10.4297 16.6406 10.1172 12.8516 11.3281 9.1797C12.2656 6.44532 13.9453 4.4922 16.4844 3.2422C18.4766 2.26563 20.9375 1.71876 24.4531 1.44532C29.6875 1.40626 34.8828 2.14845 37.5 7.34376C39.2187 11.5234 39.2187 16.0156 39.2578 20.3516C39.2578 21.9922 39.2578 23.6719 39.375 25.3125C39.4141 25.8203 39.4531 26.3281 39.4531 26.8359C39.7656 31.6016 40.1172 36.9922 37.9297 41.3672C36.8359 43.5938 34.9219 45.2344 32.3047 46.2891C30.1953 47.1484 27.5391 47.6172 24.7266 47.6172ZM24.5312 1.6797C19.0234 2.10938 13.6328 3.32032 11.6406 9.25782C10.4297 12.8906 10.7422 16.6406 11.0547 20.2734C11.2109 22.3047 11.4062 24.375 11.3281 26.4453C11.2891 27.4219 11.2109 28.4375 11.1328 29.5313C10.7812 33.8281 10.3906 38.6719 12.5391 42.1484C13.4375 43.5938 16.3281 47.0313 23.7891 47.3047H24.7656C33.3984 47.3047 36.6015 43.4766 37.7734 41.2109C39.9219 36.9141 39.5703 31.5234 39.2969 26.7969C39.2578 26.2891 39.2187 25.7813 39.2187 25.2734C39.1406 23.6328 39.1015 21.9531 39.1015 20.3125C39.0625 16.0156 39.0625 11.5234 37.3828 7.38282C36.2109 5.07813 34.4531 3.51563 32.0312 2.6172C29.5312 1.79688 26.7187 1.6797 24.5312 1.6797Z" fill="black"/>
  <path fill-rule="evenodd" clip-rule="evenodd" d="M25.4688 8.67186C26.4063 14.2187 35.4688 12.7344 34.1797 7.14843C33.0079 2.14843 25.1563 3.55468 25.4688 8.67186Z" fill="white"/>
  <path d="M29.7656 12.3047C28.0078 12.3047 25.7813 11.3672 25.3125 8.71094C25.2344 7.46094 25.625 6.32812 26.4453 5.46875C27.3438 4.49219 28.711 3.94531 30.1172 3.94531C31.7578 3.94531 33.711 4.80469 34.2578 7.1875C34.5703 8.51562 34.336 9.6875 33.5938 10.625C32.7735 11.6406 31.3281 12.3047 29.7656 12.3047ZM25.586 8.67188C25.7813 9.76562 26.2891 10.625 27.1094 11.25C27.8125 11.7969 28.7891 12.0703 29.7656 12.0703C31.211 12.0703 32.6172 11.4453 33.3985 10.4687C34.1016 9.60937 34.2969 8.47656 34.0235 7.22656C33.5156 5 31.6797 4.21875 30.1172 4.21875C28.7891 4.21875 27.5 4.76562 26.6406 5.66406C25.8985 6.44531 25.5078 7.5 25.586 8.67188Z" fill="black"/>
  <path fill-rule="evenodd" clip-rule="evenodd" d="M14.6485 9.57031C15.8985 14.375 23.5938 13.1641 23.3204 8.32031C22.9688 2.53906 13.4376 3.63281 14.6485 9.57031Z" fill="white"/>
  <path d="M18.75 12.7734C17.0703 12.7734 15.1172 11.9531 14.4922 9.60938C14.2188 8.24219 14.4922 6.99219 15.2734 6.05469C16.1328 5 17.5391 4.375 19.0625 4.375C21.0938 4.375 23.2422 5.58594 23.3984 8.32031C23.4766 9.45312 23.125 10.4688 22.3438 11.2891C21.5234 12.1875 20.1563 12.7734 18.75 12.7734ZM19.0625 4.64844C17.6172 4.64844 16.2891 5.23437 15.4688 6.21094C14.7266 7.10938 14.4922 8.24219 14.7656 9.53125C15.3125 11.7188 17.1875 12.5 18.75 12.5C20.0781 12.5 21.3672 11.9922 22.1875 11.0938C22.8906 10.3516 23.2422 9.375 23.1641 8.32031C23.0859 6.64062 21.9531 4.64844 19.0625 4.64844Z" fill="black"/>
  <path fill-rule="evenodd" clip-rule="evenodd" d="M26.5625 15.3125C26.5625 16.0156 26.7187 16.8359 26.6015 17.6172C26.4062 17.9687 26.0547 18.0078 25.7422 18.125C25.3125 18.0469 24.9609 17.7734 24.7656 17.3828C24.6484 16.5234 24.8047 15.6641 24.8437 14.8047L26.5625 15.3125Z" fill="white"/>
  <path d="M25.7421 18.2813C25.2343 18.2031 24.8437 17.8906 24.6484 17.4609C24.5703 16.8359 24.6093 16.25 24.6484 15.6641C24.6874 15.3906 24.6874 15.1172 24.6874 14.8438V14.6875L26.6796 15.3125V15.3906C26.6796 15.625 26.7187 15.8594 26.7187 16.1328C26.7578 16.6406 26.7968 17.1875 26.7187 17.6953V17.7344C26.5624 18.0469 26.289 18.125 26.0156 18.2422C25.9374 18.2031 25.8593 18.2422 25.7421 18.2813ZM24.8828 17.3438C25.039 17.6953 25.3515 17.9297 25.7031 18.0078C25.7812 17.9688 25.8593 17.9688 25.8984 17.9297C26.1328 17.8516 26.3281 17.7734 26.4453 17.5781C26.5234 17.1094 26.4843 16.6016 26.4453 16.0938C26.4453 15.8594 26.4062 15.625 26.4062 15.4297L24.9218 14.9609C24.9218 15.1953 24.8828 15.4297 24.8828 15.625C24.8437 16.25 24.8046 16.7969 24.8828 17.3438Z" fill="black"/>
  <path fill-rule="evenodd" clip-rule="evenodd" d="M18.0859 8.78906C18.0859 9.57031 17.5 10.1953 16.7969 10.1953C16.0937 10.1953 15.5078 9.57031 15.5078 8.78906C15.5078 8.00781 16.0937 7.38281 16.7969 7.38281C17.5 7.38281 18.0859 8.00781 18.0859 8.78906Z" fill="black"/>
  <path fill-rule="evenodd" clip-rule="evenodd" d="M17.6563 9.10156C17.6563 9.29687 17.5 9.45313 17.3438 9.45313C17.1875 9.45313 17.0312 9.29687 17.0312 9.10156C17.0312 8.90625 17.1875 8.75 17.3438 8.75C17.5391 8.75 17.6563 8.90625 17.6563 9.10156Z" fill="white"/>
  <path fill-rule="evenodd" clip-rule="evenodd" d="M28.9844 8.4375C28.9844 9.21875 28.3984 9.84375 27.6953 9.84375C26.9922 9.84375 26.4062 9.21875 26.4062 8.4375C26.4062 7.65625 26.9922 7.03125 27.6953 7.03125C28.3984 7.03125 28.9844 7.65625 28.9844 8.4375Z" fill="black"/>
  <path fill-rule="evenodd" clip-rule="evenodd" d="M28.5938 8.75C28.5938 8.94531 28.4766 9.10156 28.2813 9.10156C28.1251 9.10156 27.9688 8.94531 27.9688 8.75C27.9688 8.55469 28.086 8.39844 28.2813 8.39844C28.4376 8.39844 28.5938 8.55469 28.5938 8.75ZM22.8126 15.2344C22.2266 16.6016 23.1251 19.375 24.6876 17.3438C24.5704 16.4844 24.7266 15.625 24.7657 14.7656L22.8126 15.2344Z" fill="white"/>
  <path d="M23.6328 18.2031C23.3594 18.2031 23.086 18.0469 22.8906 17.7344C22.461 17.1094 22.3828 15.9375 22.6953 15.1953L22.7344 15.1172L24.8828 14.5703V14.7266L24.8438 15.5859C24.8047 16.1719 24.7656 16.7187 24.8438 17.3047V17.3438L24.8047 17.3828C24.4141 17.9297 24.0235 18.2031 23.6328 18.2031ZM22.9297 15.3516C22.6953 16.0156 22.7735 17.0703 23.125 17.5781C23.2813 17.8125 23.4375 17.9297 23.6328 17.9297C23.9063 17.9297 24.2188 17.6953 24.5313 17.3047C24.4531 16.7187 24.4922 16.1328 24.5703 15.5859L24.6094 14.9219L22.9297 15.3516Z" fill="black"/>
  <path fill-rule="evenodd" clip-rule="evenodd" d="M23.0078 12.5781C21.9531 12.6563 21.0937 13.9453 21.6406 14.9219C22.3828 16.25 23.9843 14.8047 25 14.9219C26.1718 14.9609 27.1093 16.1719 28.0468 15.1562C29.1015 14.0234 27.5781 12.9297 26.4453 12.4219L23.0078 12.5781Z" fill="#F6D2A2"/>
  <path d="M27.2265 15.7031C26.8749 15.7031 26.5234 15.5469 26.1718 15.3906C25.8203 15.2344 25.4296 15.0781 24.9999 15.0781H24.8828C24.5703 15.0781 24.2187 15.1953 23.8281 15.3516C23.3984 15.5078 22.9687 15.625 22.5781 15.625C22.1093 15.625 21.7578 15.4297 21.5234 15C21.2499 14.5313 21.289 13.9844 21.5624 13.4766C21.8749 12.8906 22.4218 12.5391 23.0078 12.4609L26.4843 12.3047H26.5234C27.3828 12.6563 28.3593 13.3203 28.5546 14.1016C28.6328 14.4922 28.5156 14.8828 28.2031 15.2344C27.8906 15.5859 27.5781 15.7031 27.2265 15.7031ZM25.039 14.8438C25.4687 14.8438 25.8984 15.0391 26.289 15.1953C26.6406 15.3516 26.9531 15.4687 27.2656 15.4687C27.539 15.4687 27.7734 15.3516 28.0078 15.1172C28.2812 14.8438 28.3593 14.5313 28.3203 14.2188C28.164 13.5547 27.2265 12.9297 26.4843 12.6172L23.0859 12.7734C22.5781 12.8125 22.1093 13.1641 21.8359 13.6328C21.6015 14.0625 21.6015 14.5313 21.7968 14.9219C21.9921 15.2734 22.2265 15.4297 22.6171 15.4297C22.9687 15.4297 23.3593 15.2734 23.7499 15.1562C24.1796 15 24.5312 14.8828 24.9218 14.8828C24.9218 14.8047 24.9609 14.8047 25.039 14.8438Z" fill="#231F20"/>
  <path fill-rule="evenodd" clip-rule="evenodd" d="M22.8906 12.5391C22.8124 10.7031 26.3281 10.4688 26.7187 11.9922C27.1484 13.5547 23.0468 13.9063 22.8906 12.5391Z" fill="black"/>
</svg>