<svg width="30" height="30" viewBox="0 0 30 30" fill="none" xmlns="http://www.w3.org/2000/svg">
  <path d="M15.001 6.00046C11.0009 6.00046 8.50176 7.99968 7.50098 11.9998C9.00051 10.0003 10.7511 9.25054 12.7505 9.75046C13.8921 10.035 14.708 10.8628 15.6115 11.7801C17.082 13.2724 18.784 15 22.501 15C26.5008 15 29.0002 13.0005 30.001 8.99952C28.5012 11.0001 26.7509 11.7499 24.7512 11.25C23.6098 10.9652 22.7949 10.1376 21.8902 9.2203C20.4207 7.72804 18.7191 6.00046 15.001 6.00046ZM7.50098 15C3.50113 15 1.00176 16.9994 0.000976562 21.0005C1.50051 18.9998 3.25082 18.2501 5.25051 18.75C6.39215 19.0348 7.20801 19.8623 8.11152 20.7797C9.58199 22.2719 11.284 23.9995 15.001 23.9995C19.0008 23.9995 21.5002 22.0003 22.501 18.0002C21.0012 19.9997 19.2509 20.7494 17.2512 20.2495C16.1098 19.965 15.2949 19.1372 14.3902 18.2198C12.9207 16.7276 11.2191 15 7.50098 15Z" fill="#38B2AC"/>
</svg>