<svg width="30" height="30" viewBox="0 0 30 30" fill="none" xmlns="http://www.w3.org/2000/svg">
  <g clip-path="url(#clip0_305_86)">
    <path d="M29.242 4.42014L15.7788 28.8524C15.5008 29.3568 14.7867 29.3598 14.5045 28.8578L0.774289 4.42249C0.466911 3.87546 0.927837 3.21286 1.53866 3.32366L15.0163 5.76849C15.1023 5.78409 15.1903 5.78394 15.2763 5.76804L28.4721 3.32716C29.0809 3.21456 29.544 3.87203 29.242 4.42014Z" fill="url(#paint0_linear_305_86)"/>
    <path d="M21.4365 0.116911L11.4732 2.09816C11.3095 2.13072 11.1882 2.27156 11.1784 2.44057L10.5655 12.9453C10.5511 13.1927 10.775 13.3848 11.0129 13.3291L13.7868 12.6794C14.0464 12.6186 14.2809 12.8506 14.2275 13.1155L13.4034 17.211C13.3479 17.4867 13.6029 17.7224 13.8682 17.6406L15.5815 17.1123C15.8471 17.0305 16.1023 17.2669 16.0461 17.5427L14.7364 23.9759C14.6545 24.3783 15.1819 24.5977 15.4018 24.2527L15.5488 24.0223L23.6674 7.5796C23.8033 7.30429 23.5689 6.99037 23.2709 7.04872L20.4157 7.60797C20.1473 7.66047 19.919 7.40688 19.9948 7.14047L21.8584 0.584175C21.9342 0.317312 21.7051 0.0635036 21.4365 0.116911Z" fill="url(#paint1_linear_305_86)"/>
  </g>
  <defs>
    <linearGradient id="paint0_linear_305_86" x1="0.439055" y1="2.45048" x2="17.5169" y2="25.3041" gradientUnits="userSpaceOnUse">
      <stop stop-color="#41D1FF"/>
      <stop offset="1" stop-color="#BD34FE"/>
    </linearGradient>
    <linearGradient id="paint1_linear_305_86" x1="14.2427" y1="0.654816" x2="17.3626" y2="21.7435" gradientUnits="userSpaceOnUse">
      <stop stop-color="#FFEA83"/>
      <stop offset="0.0833333" stop-color="#FFDD35"/>
      <stop offset="1" stop-color="#FFA800"/>
    </linearGradient>
    <clipPath id="clip0_305_86">
      <rect width="30" height="30" fill="white"/>
    </clipPath>
  </defs>
</svg>