<svg width="30" height="30" viewBox="0 0 30 30" fill="none" xmlns="http://www.w3.org/2000/svg">
  <path d="M29.2352 13.6823L16.3174 0.764991C15.574 0.0210852 14.3674 0.0210852 13.6228 0.764991L10.9406 3.44765L14.3433 6.8503C15.1343 6.58335 16.0409 6.76241 16.6711 7.39265C17.3046 8.02687 17.4823 8.94116 17.2088 9.73476L20.4881 13.0144C21.2815 12.7409 22.1972 12.9176 22.8305 13.5523C23.7164 14.4375 23.7164 15.8726 22.8305 16.7583C22.6199 16.9689 22.37 17.136 22.0948 17.25C21.8197 17.364 21.5248 17.4227 21.227 17.4227C20.9292 17.4227 20.6343 17.364 20.3592 17.25C20.084 17.136 19.8341 16.9689 19.6235 16.7583C19.3072 16.4418 19.0916 16.0388 19.0038 15.6C18.916 15.1612 18.96 14.7063 19.1302 14.2924L16.072 11.2343L16.0716 19.283C16.2934 19.3922 16.496 19.5369 16.6713 19.7114C17.5568 20.5966 17.5568 22.0312 16.6713 22.9184C15.7856 23.8036 14.3501 23.8036 13.4653 22.9184C12.5798 22.0315 12.5798 20.5969 13.4653 19.7114C13.6775 19.4989 13.9298 19.3308 14.2076 19.2169V11.0937C13.9296 10.98 13.6772 10.8118 13.4653 10.5989C12.7945 9.92859 12.633 8.94421 12.9771 8.12015L9.6225 4.76554L0.765003 13.6226C0.407656 13.98 0.206909 14.4648 0.206909 14.9702C0.206909 15.4757 0.407656 15.9604 0.765003 16.3179L13.6831 29.2352C14.427 29.9791 15.633 29.9791 16.3781 29.2352L29.2355 16.3779C29.5927 16.0203 29.7934 15.5355 29.7934 15.0301C29.7933 14.5246 29.5926 14.0398 29.2352 13.6823Z" fill="#F34F29"/>
</svg>