<svg width="50" height="18" viewBox="0 0 50 18" fill="none" xmlns="http://www.w3.org/2000/svg">
  <path d="M11.943 13.567C14.8093 13.567 16.4502 11.8274 16.4502 9.24284V9.08789C16.4502 8.3907 16.0558 7.98222 15.3868 7.98222H12.9008C12.3867 7.98222 12.0487 8.27097 12.0487 8.75689C12.0487 9.24284 12.3938 9.53159 12.9008 9.53159H14.3797L14.3727 9.69357C14.3304 10.9542 13.3656 11.8063 11.9782 11.8063C10.288 11.8063 9.21756 10.4612 9.21756 8.25689C9.21756 6.09484 10.2247 4.82014 11.9008 4.82014C12.9008 4.82014 13.6403 5.26382 14.1403 6.1723C14.4009 6.60189 14.7178 6.79205 15.1685 6.79205C15.7248 6.79205 16.0981 6.41878 16.0981 5.87651C16.0981 5.67228 16.0629 5.46805 15.9432 5.22157C15.3727 3.97503 13.8445 3.05951 11.8937 3.05951C8.90769 3.05951 7.04846 5.03141 7.04846 8.28505C7.04846 11.588 8.90769 13.567 11.943 13.567Z" fill="#38B6FF"/>
  <path d="M22.2814 13.567C25.1617 13.567 26.9646 11.5458 26.9646 8.32027C26.9646 5.09481 25.1617 3.06656 22.2814 3.06656C19.401 3.06656 17.5981 5.09481 17.5981 8.32027C17.5981 11.5458 19.401 13.567 22.2814 13.567ZM22.2814 12.3979C20.2039 12.3979 18.901 10.8204 18.901 8.32027C18.901 5.81314 20.2039 4.23562 22.2814 4.23562C24.359 4.23562 25.6617 5.81314 25.6617 8.32027C25.6617 10.8204 24.359 12.3979 22.2814 12.3979Z" fill="#38B6FF"/>
  <path d="M29.4648 13.5458C30.1339 13.5458 30.5283 13.1374 30.5283 12.4401V9.67947H32.3381L34.0283 12.743C34.3735 13.3627 34.6058 13.5458 35.1129 13.5458C35.7327 13.5458 36.1833 13.1374 36.1833 12.5739C36.1833 12.3274 36.1341 12.1444 35.9581 11.8415L34.4931 9.30622C35.6129 8.82733 36.2396 7.74278 36.2396 6.47512C36.2396 4.46801 34.9016 3.23557 32.5635 3.23557H29.4648C28.7958 3.23557 28.4014 3.64403 28.4014 4.34124V12.4401C28.4014 13.1374 28.8029 13.5458 29.4648 13.5458ZM30.5283 8.13716V4.8976H32.3381C33.3944 4.8976 34.0566 5.53143 34.0566 6.51737C34.0566 7.52447 33.4298 8.13716 32.3593 8.13716H30.5283Z" fill="#38B6FF"/>
  <path d="M38.5848 13.5317C39.1835 13.5317 39.5285 13.1655 39.5285 12.5387V6.53852H39.5848L42.099 12.6937C42.2752 13.1303 42.571 13.3346 43.0215 13.3346C43.4654 13.3346 43.7469 13.1374 43.9302 12.6866L46.4442 6.53852H46.5006V12.5387C46.5006 13.1655 46.8458 13.5317 47.4444 13.5317C48.0429 13.5317 48.395 13.1655 48.395 12.5387V4.46801C48.395 3.60178 47.8881 3.09473 47.0288 3.09473C46.2823 3.09473 45.8667 3.41163 45.5569 4.19336L43.0427 10.4401H42.9863L40.4652 4.19336C40.1554 3.40459 39.7469 3.09473 39.0073 3.09473C38.1411 3.09473 37.634 3.60882 37.634 4.46801V12.5387C37.634 13.1655 37.9861 13.5317 38.5848 13.5317Z" fill="#38B6FF"/>
  <path fill-rule="evenodd" clip-rule="evenodd" d="M3.18693 7.43493C3.13491 7.43493 3.12154 7.39626 3.14756 7.3569L3.32966 7.03278C3.35566 6.99342 3.40839 6.95474 3.46043 6.95474H6.06527C6.11731 6.95474 6.14331 6.99342 6.14331 7.04543L6.11731 7.3569C6.11731 7.40892 6.06527 7.44759 6.02591 7.44759L3.18693 7.43493Z" fill="#38B6FF"/>
  <path fill-rule="evenodd" clip-rule="evenodd" d="M0.109819 6.26048C0.0577918 6.26048 0.0444335 6.23446 0.0711501 6.19509L0.344643 5.84496C0.370657 5.80559 0.435337 5.77957 0.487364 5.77957H6.42757C6.4796 5.77957 6.5056 5.81894 6.49226 5.85761L6.3882 6.16907C6.37555 6.22109 6.32282 6.24711 6.27078 6.24711L0.109819 6.26048Z" fill="#38B6FF"/>
  <mask id="mask0_305_26" style="mask-type:luminance" maskUnits="userSpaceOnUse" x="1" y="4" width="6" height="2">
    <path d="M1.86194 4.60519H6.86074V5.14516H1.86194V4.60519Z" fill="white"/>
  </mask>
  <g mask="url(#mask0_305_26)">
    <path fill-rule="evenodd" clip-rule="evenodd" d="M1.96879 5.10437C1.91676 5.10437 1.90341 5.07835 1.92942 5.0397L2.2029 4.68887C2.22892 4.6502 2.29431 4.62418 2.34635 4.62418H6.99642C7.04844 4.62418 7.06181 4.66285 7.03579 4.70221L6.81433 5.0397C6.78831 5.07835 6.72292 5.11773 6.68356 5.11773L1.96879 5.10437Z" fill="#38B6FF"/>
  </g>
</svg>