<svg xmlns="http://www.w3.org/2000/svg" width="40" height="40" viewBox="0 0 40 40" fill="none">
  <path d="M36.25 0.937522H3.75C3.0126 0.930018 2.30233 1.21535 1.77506 1.73091C1.24778 2.24646 0.946566 2.95014 0.9375 3.68752V36.3188C0.948206 37.0551 1.25014 37.7571 1.77724 38.2714C2.30434 38.7856 3.01367 39.07 3.75 39.0625H36.25C36.9874 39.0684 37.6972 38.7821 38.2242 38.2662C38.7512 37.7503 39.0526 37.0468 39.0625 36.3094V3.67815C39.0493 2.94292 38.7465 2.24261 38.2199 1.72942C37.6932 1.21622 36.9853 0.931641 36.25 0.937522Z" fill="#53A8B2"/>
  <path d="M6.58123 15.2281H12.2406V33.4375H6.58123V15.2281ZM9.41248 6.16565C10.0616 6.16565 10.6961 6.35817 11.2358 6.71886C11.7754 7.07954 12.196 7.59219 12.4443 8.19194C12.6925 8.79169 12.7573 9.4516 12.6304 10.0882C12.5036 10.7248 12.1908 11.3094 11.7316 11.7682C11.2724 12.227 10.6874 12.5392 10.0507 12.6655C9.41399 12.7917 8.75415 12.7263 8.15463 12.4775C7.55511 12.2287 7.04287 11.8076 6.6827 11.2676C6.32253 10.7276 6.13061 10.0929 6.13123 9.44377C6.13206 8.57407 6.47812 7.74028 7.09339 7.1256C7.70865 6.51092 8.54278 6.16565 9.41248 6.16565ZM15.7906 15.2281H21.2156V17.7281H21.2906C22.0469 16.2969 23.8906 14.7875 26.6437 14.7875C32.375 14.775 33.4375 18.5469 33.4375 23.4375V33.4375H27.7781V24.5781C27.7781 22.4688 27.7406 19.7531 24.8375 19.7531C21.9344 19.7531 21.4406 22.0531 21.4406 24.4406V33.4375H15.7906V15.2281Z" fill="white"/>
</svg>