<svg width="30" height="28" viewBox="0 0 30 28" fill="none" xmlns="http://www.w3.org/2000/svg">
  <path d="M15 16.6719C16.4756 16.6719 17.6719 15.4756 17.6719 14C17.6719 12.5244 16.4756 11.3281 15 11.3281C13.5244 11.3281 12.3281 12.5244 12.3281 14C12.3281 15.4756 13.5244 16.6719 15 16.6719Z" fill="#61DAFB"/>
  <path d="M25.1484 9.59375C24.6328 9.40625 24.0938 9.21875 23.5312 9.05469C23.6719 8.49219 23.7891 7.92969 23.8828 7.39062C24.375 4.29687 23.8359 2.11719 22.3359 1.27344C21.8906 1.01562 21.3984 0.898438 20.8359 0.898438C19.1953 0.898438 17.1094 2.11719 15 4.15625C12.8906 2.11719 10.8047 0.898438 9.16406 0.898438C8.60156 0.898438 8.10938 1.01562 7.66406 1.27344C6.16406 2.14062 5.625 4.32031 6.11719 7.39062C6.21094 7.92969 6.32812 8.49219 6.46875 9.05469C5.90625 9.21875 5.36719 9.38281 4.85156 9.59375C1.92188 10.7188 0.328125 12.2656 0.328125 14C0.328125 15.7344 1.94531 17.2813 4.85156 18.4063C5.36719 18.5938 5.90625 18.7812 6.46875 18.9453C6.32812 19.5078 6.21094 20.0703 6.11719 20.6094C5.625 23.7031 6.16406 25.8828 7.66406 26.7266C8.10938 26.9844 8.60156 27.1016 9.16406 27.1016C10.8281 27.1016 12.9141 25.8828 15 23.8438C17.1094 25.8828 19.1953 27.1016 20.8359 27.1016C21.3984 27.1016 21.8906 26.9844 22.3359 26.7266C23.8359 25.8594 24.375 23.6797 23.8828 20.6094C23.7891 20.0703 23.6719 19.5078 23.5312 18.9453C24.0938 18.7812 24.6328 18.6172 25.1484 18.4063C28.0781 17.2813 29.6719 15.7344 29.6719 14C29.6719 12.2656 28.0781 10.7188 25.1484 9.59375ZM21.6797 2.44531C22.6406 3.00781 22.9688 4.74219 22.5703 7.20312C22.5 7.69531 22.3828 8.21094 22.2422 8.75C21.0234 8.46875 19.7344 8.28125 18.375 8.16406C17.5781 7.03906 16.7578 6.03125 15.9375 5.11719C17.6719 3.40625 19.4297 2.23438 20.8594 2.23438C21.1641 2.23438 21.4453 2.30469 21.6797 2.44531ZM19.0547 16.3438C18.6328 17.0938 18.1406 17.8438 17.625 18.5938C16.7578 18.6641 15.8906 18.6875 15 18.6875C14.0859 18.6875 13.2187 18.6641 12.375 18.5938C11.8594 17.8438 11.3906 17.0938 10.9687 16.3438C10.5234 15.5703 10.1016 14.7734 9.72656 14C10.1016 13.2266 10.5234 12.4297 10.9687 11.6562C11.3906 10.9062 11.8828 10.1563 12.3984 9.40625C13.2656 9.33594 14.1328 9.3125 15.0234 9.3125C15.9375 9.3125 16.8047 9.33594 17.6484 9.40625C18.1641 10.1563 18.6328 10.9062 19.0547 11.6562C19.5 12.4297 19.9219 13.2266 20.2969 14C19.8984 14.7734 19.5 15.5469 19.0547 16.3438ZM21 15.5703C21.3516 16.3906 21.6328 17.1875 21.8906 17.9844C21.0938 18.1719 20.25 18.3125 19.3594 18.4297C19.6406 17.9844 19.9453 17.5156 20.2031 17.0234C20.4844 16.5313 20.7422 16.0391 21 15.5703ZM15 21.9219C14.4375 21.3125 13.8984 20.6562 13.3828 19.9766C13.9219 20 14.4609 20.0234 15 20.0234C15.5391 20.0234 16.0781 20 16.6172 19.9766C16.1016 20.6562 15.5625 21.3125 15 21.9219ZM10.6406 18.4063C9.75 18.2891 8.90625 18.1484 8.10937 17.9609C8.36719 17.1875 8.64844 16.3672 9 15.5469C9.25781 16.0156 9.51562 16.5078 9.79687 16.9766C10.0781 17.4922 10.3594 17.9375 10.6406 18.4063ZM9 12.4297C8.64844 11.6094 8.36719 10.8125 8.10937 10.0156C8.90625 9.82812 9.75 9.6875 10.6406 9.57031C10.3594 10.0156 10.0547 10.4844 9.79687 10.9766C9.51562 11.4688 9.25781 11.9609 9 12.4297ZM15 6.07812C15.5625 6.6875 16.1016 7.34375 16.6172 8.02344C16.0781 8 15.5391 7.97656 15 7.97656C14.4609 7.97656 13.9219 8 13.3828 8.02344C13.8984 7.34375 14.4375 6.6875 15 6.07812ZM20.2031 11L19.3594 9.59375C20.25 9.71094 21.0938 9.85156 21.8906 10.0391C21.6328 10.8125 21.3516 11.6328 21 12.4531C20.7422 11.9609 20.4844 11.4688 20.2031 11ZM7.42969 7.20312C7.03125 4.74219 7.35937 3.00781 8.32031 2.44531C8.55469 2.30469 8.83594 2.23438 9.14062 2.23438C10.5469 2.23438 12.3047 3.38281 14.0625 5.11719C13.2422 6.00781 12.4219 7.03906 11.625 8.16406C10.2656 8.28125 8.97656 8.49219 7.75781 8.75C7.61719 8.21094 7.52344 7.69531 7.42969 7.20312ZM1.64062 14C1.64062 12.8984 2.97656 11.7266 5.32031 10.8594C5.78906 10.6719 6.30469 10.5078 6.82031 10.3672C7.19531 11.5391 7.66406 12.7812 8.22656 14.0234C7.66406 15.2656 7.17188 16.4844 6.82031 17.6562C3.58594 16.7188 1.64062 15.3125 1.64062 14ZM8.32031 25.5547C7.35937 24.9922 7.03125 23.2578 7.42969 20.7969C7.5 20.3047 7.61719 19.7891 7.75781 19.25C8.97656 19.5312 10.2656 19.7188 11.625 19.8359C12.4219 20.9609 13.2422 21.9688 14.0625 22.8828C12.3281 24.5938 10.5703 25.7656 9.14062 25.7656C8.83594 25.7656 8.55469 25.6953 8.32031 25.5547ZM22.5703 20.7969C22.9688 23.2578 22.6406 24.9922 21.6797 25.5547C21.4453 25.6953 21.1641 25.7656 20.8594 25.7656C19.4531 25.7656 17.6953 24.6172 15.9375 22.8828C16.7578 21.9922 17.5781 20.9609 18.375 19.8359C19.7344 19.7188 21.0234 19.5078 22.2422 19.25C22.3828 19.7891 22.4766 20.3047 22.5703 20.7969ZM24.6797 17.1406C24.2109 17.3281 23.6953 17.4922 23.1797 17.6328C22.8047 16.4609 22.3359 15.2188 21.7734 13.9766C22.3359 12.7344 22.8281 11.5156 23.1797 10.3438C26.4141 11.2813 28.3594 12.6875 28.3594 14C28.3594 15.1016 27 16.2734 24.6797 17.1406Z" fill="#61DAFB"/>
</svg>